<?xml version="1.0" standalone="no"?>
<!DOCTYPE svg PUBLIC "-//W3C//DTD SVG 20010904//EN"
 "http://www.w3.org/TR/2001/REC-SVG-20010904/DTD/svg10.dtd">
<svg version="1.0" xmlns="http://www.w3.org/2000/svg"
 width="256.000000pt" height="256.000000pt" viewBox="0 0 256.000000 256.000000"
 preserveAspectRatio="xMidYMid meet">
<metadata>
Created by potrace 1.14, written by Peter Selinger 2001-2017
</metadata>
<g transform="translate(0.000000,256.000000) scale(0.100000,-0.100000)"
fill="#000000" stroke="none">
<path d="M1208 2014 c-15 -8 -32 -23 -38 -34 -14 -26 -13 -123 2 -138 9 -9 9
-12 1 -12 -21 0 -56 61 -57 101 0 26 -4 35 -11 28 -12 -12 -14 -1349 -2 -1391
9 -35 61 -95 99 -114 34 -18 235 -21 252 -4 9 9 23 130 15 130 -2 0 -18 -4
-35 -9 -18 -5 -37 -5 -45 0 -12 7 -11 9 1 10 8 1 19 1 24 0 6 -1 20 0 32 3 24
6 25 18 6 53 -11 20 -10 22 4 16 15 -6 16 0 11 55 -4 46 -2 60 6 55 7 -4 6 0
-1 10 -8 8 -28 18 -45 20 -27 3 -25 4 11 5 26 1 42 -2 42 -10 0 -6 3 -8 7 -5
3 4 -1 15 -10 25 -10 10 -14 22 -10 25 11 11 -6 8 -27 -5 -15 -10 -22 -10 -32
0 -9 9 -7 11 10 7 26 -5 47 27 51 76 2 35 1 36 -26 31 -15 -3 -31 -10 -35 -16
-5 -7 -8 -5 -8 6 0 12 10 18 32 20 21 2 34 9 36 20 3 14 -2 15 -35 8 -23 -6
-42 -5 -47 0 -7 7 1 10 21 10 41 0 63 9 63 26 0 16 -9 18 -29 5 -15 -10 -41
-4 -41 9 0 4 12 5 27 2 23 -4 25 -2 20 17 -4 18 -3 20 8 11 21 -17 17 882 -4
902 -11 11 -12 9 -7 -8 9 -29 -21 -102 -48 -116 -17 -9 -19 -8 -8 3 15 16 16
113 2 140 -25 45 -126 64 -182 33z m222 -952 c0 -5 -7 -9 -15 -9 -8 0 -12 4
-9 9 3 4 9 8 15 8 5 0 9 -4 9 -8z m18 -159 c-10 -2 -26 -2 -35 0 -10 3 -2 5
17 5 19 0 27 -2 18 -5z m-18 -31 c0 -5 -7 -9 -15 -9 -8 0 -12 4 -9 9 3 4 9 8
15 8 5 0 9 -4 9 -8z m20 -118 c0 -2 -11 -4 -25 -4 -14 0 -25 4 -25 9 0 4 11 6
25 3 14 -2 25 -6 25 -8z m-2 -31 c-10 -2 -26 -2 -35 0 -10 3 -2 5 17 5 19 0
27 -2 18 -5z m-5 -40 c-13 -2 -33 -2 -45 0 -13 2 -3 4 22 4 25 0 35 -2 23 -4z
m-16 -29 c-3 -3 -12 -4 -19 -1 -8 3 -5 6 6 6 11 1 17 -2 13 -5z m21 -39 c3 -3
-4 -5 -16 -5 -11 0 -23 4 -27 9 -6 10 33 6 43 -4z m-8 -82 c-14 -3 -28 -10
-32 -17 -5 -7 -8 -5 -8 7 0 13 8 17 33 16 27 -2 28 -2 7 -6z m8 -40 c-10 -2
-26 -2 -35 0 -10 3 -2 5 17 5 19 0 27 -2 18 -5z"/>
</g>
</svg>
